<?xml version="1.0" encoding="utf-8"?>
<!-- Generator: Adobe Illustrator 16.0.0, SVG Export Plug-In . SVG Version: 6.00 Build 0)  -->
<!DOCTYPE svg PUBLIC "-//W3C//DTD SVG 1.1//EN" "http://www.w3.org/Graphics/SVG/1.1/DTD/svg11.dtd">
<svg version="1.1" xmlns="http://www.w3.org/2000/svg" xmlns:xlink="http://www.w3.org/1999/xlink" x="0px" y="0px"
	 width="595.28px" height="841.89px" viewBox="0 0 595.28 841.89" enable-background="new 0 0 595.28 841.89" xml:space="preserve">
<g id="Layer_1">
	<g>
		
			<image overflow="visible" width="1203" height="626" xlink:href="C:\xampp\htdocs\skripsi\assets\www\assets\img\part1.PNG"  transform="matrix(0.7501 0 0 0.7501 -445.1875 811.2832)">
		</image>
		
			<image overflow="visible" width="967" height="637" xlink:href="C:\xampp\htdocs\skripsi\assets\www\assets\img\part3.PNG"  transform="matrix(0.7501 0 0 0.7501 -70.2344 419.2266)">
		</image>
		
			<image overflow="visible" width="696" height="582" xlink:href="C:\xampp\htdocs\skripsi\assets\www\assets\img\part4.PNG"  transform="matrix(0.7501 0 0 0.7501 36.6035 25.8057)">
		</image>
		
			<image overflow="visible" width="1212" height="549" xlink:href="C:\xampp\htdocs\skripsi\assets\www\assets\img\part2.PNG"  transform="matrix(0.7501 0 0 0.7501 -413.7168 615.8809)">
		</image>
	</g>
</g>
<g id="Layer_2">
	<polyline fill="#F36B2C" points="294.451,87.683 470.01,152.683 428.01,280.683 369.01,334.683 343.344,422.684 309.677,560.01 
		164.677,511.01 193.677,383.017 238.01,245.433 	"/>
</g>
<g id="Layer_3">
	
		<rect x="293.074" y="110.044" transform="matrix(0.9615 0.2747 -0.2747 0.9615 45.4685 -83.1273)" fill="#03A04A" width="52.978" height="21.5"/>
	<g>
	</g>
	<g>
	</g>
	<g>
	</g>
	<g>
	</g>
	<g>
	</g>
	<g>
	</g>
</g>
</svg>
